<?xml version="1.0" encoding="UTF-8" standalone="no"?>
<!-- Created with Inkscape (http://www.inkscape.org/) -->

<svg
   width="210mm"
   height="297mm"
   viewBox="0 0 210 297"
   version="1.1"
   id="svg5"
   xml:space="preserve"
   inkscape:version="1.2.2 (b0a8486541, 2022-12-01)"
   sodipodi:docname="drawing.svg"
   xmlns:inkscape="http://www.inkscape.org/namespaces/inkscape"
   xmlns:sodipodi="http://sodipodi.sourceforge.net/DTD/sodipodi-0.dtd"
   xmlns="http://www.w3.org/2000/svg"
   xmlns:svg="http://www.w3.org/2000/svg"><sodipodi:namedview
     id="namedview7"
     pagecolor="#ffffff"
     bordercolor="#000000"
     borderopacity="0.25"
     inkscape:showpageshadow="2"
     inkscape:pageopacity="0.0"
     inkscape:pagecheckerboard="0"
     inkscape:deskcolor="#d1d1d1"
     inkscape:document-units="mm"
     showgrid="false"
     inkscape:zoom="0.72693603"
     inkscape:cx="262.74664"
     inkscape:cy="508.29782"
     inkscape:window-width="1854"
     inkscape:window-height="1003"
     inkscape:window-x="66"
     inkscape:window-y="40"
     inkscape:window-maximized="1"
     inkscape:current-layer="layer1" /><defs
     id="defs2" /><g
     inkscape:label="Layer 1"
     inkscape:groupmode="layer"
     id="layer1"
     style="display:inline"><g
       id="g1937"
       inkscape:export-filename="./logo.png"
       inkscape:export-xdpi="72.433472"
       inkscape:export-ydpi="72.433472"><g
         id="g1045"
         inkscape:export-filename="g1045.png"
         inkscape:export-xdpi="300"
         inkscape:export-ydpi="300"><rect
           style="fill:#ff7f2a;stroke-width:0.9;stroke:#000000;stroke-opacity:1;stroke-dasharray:none"
           id="rect856"
           width="25.09597"
           height="9.9818583"
           x="122.56996"
           y="119.40228"
           ry="4.9909291"
           rx="7.0188088" /><path
           style="fill:#225500;stroke-width:0.9;stroke:#03010e;stroke-opacity:1;stroke-dasharray:none;fill-opacity:1;opacity:1"
           d="m 85.470976,190.18172 c -4.53217,-0.89859 -8.037671,-2.3914 -11.275118,-4.80146 -10.310352,-7.67536 -13.104592,-21.60586 -6.55243,-32.66669 0.862373,-1.45579 2.129126,-3.01416 3.814853,-4.69306 3.516188,-3.50194 6.938115,-5.42721 12.096532,-6.80582 2.456193,-0.65643 2.967125,-0.69427 10.84585,-0.80326 l 8.268227,-0.11438 v -11.17092 c 0,-6.77131 0.11138,-11.78925 0.2828,-12.74087 0.4049,-2.24781 2.10462,-5.60963 3.74623,-7.40953 5.77052,-6.32693 15.51311,-6.7189 21.75978,-0.87545 2.1147,1.9782 3.19764,3.65382 4.00542,6.19754 1.6237,5.11306 0.25376,10.25079 -3.783,14.18748 -3.0966,3.01984 -6.75681,4.50943 -11.12842,4.52892 l -2.71198,0.0121 c -0.44548,38.60708 -0.16883,29.15472 -0.75239,38.14522 -2.37249,8.71966 -9.17727,15.65958 -17.921631,18.27754 -1.996209,0.59764 -2.952257,0.71878 -6.196827,0.78521 -2.110052,0.0432 -4.134114,0.0195 -4.497916,-0.0526 z m 7.750862,-12.26574 c 2.084972,-0.64399 4.545798,-2.24075 6.036352,-3.91684 1.33184,-1.49761 2.77544,-4.42396 3.1421,-6.36943 0.14773,-0.78384 0.2686,-4.51081 0.2686,-8.28216 v -6.85698 l -8.268227,0.0801 -8.268229,0.0801 -2.06896,0.9879 c -5.821452,2.77968 -8.96843,9.03797 -7.458926,14.83334 1.226071,4.70721 4.739978,8.32123 9.312978,9.57831 1.985428,0.54578 5.299771,0.48485 7.304312,-0.13429 z m 26.372442,-56.4277 c 1.0367,-0.52457 1.86003,-1.96415 1.86003,-3.25222 0,-3.84871 -5.90913,-4.23588 -6.60458,-0.43274 -0.22534,1.23228 0.13981,2.28978 1.08074,3.12987 1.05866,0.94522 2.47019,1.15907 3.66381,0.55509 z"
           id="path664"
           sodipodi:nodetypes="sssssscsssssssccsssscssscccsssccsssss" /><path
           style="fill:#000000;stroke-width:0.204957"
           d="m 103.9293,112.22667 -0.7675,2.93681 45.05846,0.0741 c 0.32732,0.0951 2.68305,-0.18948 2.65127,-0.49593 2.4198,-1.5574 -5.19926,-3.06662 -9.60454,-3.25938 l -9.45849,-0.4667 c 0.96913,-0.85301 -13.22174,-16.274637 -25.96897,-1.67997 z"
           id="path1026"
           sodipodi:nodetypes="ccccccsc" /></g></g></g></svg>
