<?xml version="1.0" encoding="UTF-8" standalone="no"?>
<!-- Created with Inkscape (http://www.inkscape.org/) -->

<svg
   width="210mm"
   height="297mm"
   viewBox="0 0 210 297"
   version="1.1"
   id="svg5"
   xml:space="preserve"
   inkscape:version="1.2.2 (b0a8486541, 2022-12-01)"
   sodipodi:docname="drawing_alt3.svg"
   xmlns:inkscape="http://www.inkscape.org/namespaces/inkscape"
   xmlns:sodipodi="http://sodipodi.sourceforge.net/DTD/sodipodi-0.dtd"
   xmlns="http://www.w3.org/2000/svg"
   xmlns:svg="http://www.w3.org/2000/svg"><sodipodi:namedview
     id="namedview7"
     pagecolor="#ffffff"
     bordercolor="#000000"
     borderopacity="0.25"
     inkscape:showpageshadow="2"
     inkscape:pageopacity="0.0"
     inkscape:pagecheckerboard="0"
     inkscape:deskcolor="#d1d1d1"
     inkscape:document-units="mm"
     showgrid="false"
     inkscape:zoom="0.5140214"
     inkscape:cx="-161.47188"
     inkscape:cy="683.82367"
     inkscape:window-width="1854"
     inkscape:window-height="1003"
     inkscape:window-x="66"
     inkscape:window-y="40"
     inkscape:window-maximized="1"
     inkscape:current-layer="g1045" /><defs
     id="defs2"><rect
       x="461.9073"
       y="579.24838"
       width="228.61274"
       height="120.09758"
       id="rect290" /></defs><g
     inkscape:label="Layer 1"
     inkscape:groupmode="layer"
     id="layer1"
     style="display:inline"><g
       id="g1937"
       inkscape:export-filename="./logo.png"
       inkscape:export-xdpi="72.433472"
       inkscape:export-ydpi="72.433472"><g
         id="g1045"
         inkscape:export-filename="g1045.png"
         inkscape:export-xdpi="300"
         inkscape:export-ydpi="300"><rect
           style="fill:#162d16;stroke:none;stroke-width:3.4;stroke-linejoin:bevel;paint-order:stroke fill markers;fill-opacity:1"
           id="rect346"
           width="119.09334"
           height="119.92839"
           x="42.600628"
           y="81.052979"
           rx="15.380661"
           ry="16.75989"
           inkscape:export-filename="logo_framed.png"
           inkscape:export-xdpi="300"
           inkscape:export-ydpi="300" /><text
           xml:space="preserve"
           transform="scale(0.26458333)"
           id="text288"
           style="white-space:pre;shape-inside:url(#rect290);display:inline;fill:none;stroke:#161616;stroke-width:7.1811;stroke-linejoin:bevel;paint-order:stroke fill markers" /><rect
           style="display:inline;fill:#ff6600;stroke:none;stroke-width:1.0473;stroke-dasharray:none;stroke-opacity:1"
           id="rect856"
           width="30.639277"
           height="6.1226444"
           x="127.78034"
           y="107.87503"
           ry="2.7299426"
           rx="2.063874"
           inkscape:export-filename="alt_6.png"
           inkscape:export-xdpi="300"
           inkscape:export-ydpi="300" /><rect
           style="display:inline;fill:#ff6600;fill-opacity:1;stroke:none;stroke-width:1.0473;stroke-dasharray:none;stroke-opacity:1"
           id="rect856-6"
           width="28.968571"
           height="5.8931255"
           x="118.90745"
           y="117.66579"
           ry="2.9465628"
           rx="2.2112632" /><path
           style="display:inline;fill:#ffffff;fill-opacity:1;stroke:none;stroke-width:1.20296;stroke-linejoin:round;stroke-dasharray:none;stroke-opacity:1"
           d="m 75.980475,191.56843 c -5.578587,-1.05645 -9.893462,-2.8115 -13.878392,-5.64494 -12.690875,-9.02371 -16.130267,-25.40141 -8.065299,-38.40532 1.061484,-1.71153 2.620713,-3.54366 4.695652,-5.5175 4.328029,-4.11713 8.540033,-6.38062 14.88946,-8.00141 3.023295,-0.77175 3.652194,-0.81624 13.350012,-0.94437 l 10.17725,-0.13448 v -13.13334 c 0,-7.96084 0.137096,-13.86029 0.348095,-14.97908 0.498386,-2.64269 2.590547,-6.595082 4.611187,-8.711174 7.10285,-7.438394 19.09488,-7.899222 26.78382,-1.029242 2.60296,2.325715 3.93593,4.295694 4.93022,7.286266 1.99859,6.01129 0.31235,12.05157 -4.65645,16.67983 -3.81156,3.55034 -8.31686,5.30161 -13.69782,5.32452 l -3.33814,0.0142 c -0.54833,45.38927 -0.20781,34.27639 -0.92611,44.84627 -2.92026,10.25146 -11.296176,18.41053 -22.059493,21.48839 -2.457107,0.70263 -3.633894,0.84505 -7.627592,0.92315 -2.597234,0.0508 -5.088625,0.0229 -5.536424,-0.0618 z m 9.540433,-14.42049 c 2.566364,-0.75712 5.595362,-2.63439 7.430065,-4.60492 1.639344,-1.7607 3.416252,-5.20113 3.867569,-7.48836 0.181839,-0.92154 0.330616,-5.30323 0.330616,-9.73711 v -8.06156 l -10.17725,0.0942 -10.177253,0.0942 -2.546655,1.16144 c -7.165548,3.268 -11.039121,10.62569 -9.181093,17.43915 1.509155,5.53413 5.834376,9.78304 11.463221,11.26095 2.443836,0.64166 6.523417,0.57002 8.99078,-0.15788 z m 32.461482,-66.34047 c 1.27606,-0.61673 2.28949,-2.3092 2.28949,-3.82355 0,-4.52482 -7.27347,-4.98 -8.12949,-0.50876 -0.27737,1.44876 0.17209,2.69203 1.33027,3.6797 1.30309,1.11127 3.04052,1.36269 4.50973,0.65261 z"
           id="path664"
           sodipodi:nodetypes="sssssscsssssssccsssscssscccsssccsssss" /></g></g></g></svg>
