<?xml version="1.0" encoding="UTF-8" standalone="no"?>
<!-- Created with Inkscape (http://www.inkscape.org/) -->

<svg
   width="210mm"
   height="297mm"
   viewBox="0 0 210 297"
   version="1.1"
   id="svg5"
   xml:space="preserve"
   inkscape:version="1.2.2 (b0a8486541, 2022-12-01)"
   sodipodi:docname="drawing_alt2.svg"
   xmlns:inkscape="http://www.inkscape.org/namespaces/inkscape"
   xmlns:sodipodi="http://sodipodi.sourceforge.net/DTD/sodipodi-0.dtd"
   xmlns="http://www.w3.org/2000/svg"
   xmlns:svg="http://www.w3.org/2000/svg"><sodipodi:namedview
     id="namedview7"
     pagecolor="#ffffff"
     bordercolor="#000000"
     borderopacity="0.25"
     inkscape:showpageshadow="2"
     inkscape:pageopacity="0.0"
     inkscape:pagecheckerboard="0"
     inkscape:deskcolor="#d1d1d1"
     inkscape:document-units="mm"
     showgrid="false"
     inkscape:zoom="0.72693604"
     inkscape:cx="268.937"
     inkscape:cy="541.3131"
     inkscape:window-width="1854"
     inkscape:window-height="1003"
     inkscape:window-x="66"
     inkscape:window-y="40"
     inkscape:window-maximized="1"
     inkscape:current-layer="g1045" /><defs
     id="defs2"><rect
       x="461.9073"
       y="579.24838"
       width="228.61274"
       height="120.09758"
       id="rect290" /></defs><g
     inkscape:label="Layer 1"
     inkscape:groupmode="layer"
     id="layer1"
     style="display:inline"><g
       id="g1937"
       inkscape:export-filename="./logo.png"
       inkscape:export-xdpi="72.433472"
       inkscape:export-ydpi="72.433472"><g
         id="g1045"
         inkscape:export-filename="g1045.png"
         inkscape:export-xdpi="300"
         inkscape:export-ydpi="300"><path
           id="rect856"
           style="fill:none;stroke:#1c6628;stroke-width:1.92444;stroke-linejoin:miter;stroke-dasharray:none;stroke-opacity:1"
           d="m 61.292745,99.599016 c -4.397462,-0.0356 -8.793517,1.735144 -12.012478,5.264484 -1.72374,1.88995 -3.508276,5.41979 -3.933433,7.78005 -0.179996,0.99923 -0.297358,6.26818 -0.297358,13.37825 v 11.72977 l -8.68189,0.12046 c -8.272888,0.11444 -8.809392,0.15396 -11.388465,0.84323 -5.416487,1.44758 -9.009503,3.46915 -12.701601,7.14628 -1.770063,1.76289 -3.1000905,3.39944 -4.0056068,4.92806 -6.8799585,11.61418 -3.9457708,26.24169 6.8803958,34.30105 3.399413,2.53063 7.07993,4.09791 11.838839,5.04146 0.382003,0.0757 2.507332,0.1007 4.722948,0.0553 3.406891,-0.0697 4.410997,-0.19723 6.507074,-0.82477 9.181832,-2.74894 16.326813,-10.03596 18.817988,-19.19186 0.612755,-9.44028 0.322286,0.48521 0.790053,-40.05334 l 2.84766,-0.013 c 0.309843,-0.001 0.616115,-0.0111 0.919196,-0.0266 0.148443,0.029 0.301359,0.045 0.457971,0.045 h 27.626306 c 1.378784,0 2.488991,-1.17376 2.488991,-2.63169 0,-1.45794 -1.110207,-2.6317 -2.488991,-2.6317 H 72.842905 c 1.181011,-1.24266 2.119234,-2.58926 2.80588,-4.00832 h 24.544235 c 1.28689,0 2.32295,-1.08722 2.32295,-2.43798 v -0.592 c 0,-1.35075 -1.03606,-2.43852 -2.32295,-2.43852 H 77.024324 c 0.06132,-1.6211 -0.164487,-3.27697 -0.68967,-4.93077 -0.848193,-2.67098 -1.985334,-4.43045 -4.205832,-6.50762 -3.074613,-2.87615 -6.955965,-4.313897 -10.836077,-4.345283 z m -0.02008,11.739544 c 1.751188,-0.0194 3.50206,1.10173 3.50206,3.24865 0,1.35251 -0.864322,2.86388 -1.952888,3.41469 -1.253336,0.6342 -2.735537,0.40974 -3.847162,-0.58276 -0.988005,-0.88212 -1.371224,-1.99272 -1.13461,-3.28664 0.342299,-1.87191 1.887429,-2.77679 3.4326,-2.79394 z m -16.223192,39.21662 v 7.2 c 0,3.96003 -0.126497,7.87348 -0.281618,8.69654 -0.385004,2.0428 -1.901195,5.11578 -3.299662,6.68831 -1.565124,1.75995 -4.14904,3.4363 -6.338321,4.11251 v 5.3e-4 c -2.104826,0.65012 -5.584606,0.71362 -7.669362,0.14054 -4.801782,-1.31996 -8.491652,-5.11472 -9.779062,-10.05742 -1.585022,-6.08531 1.719457,-12.65657 7.832149,-15.57531 l 2.172099,-1.03749 8.681887,-0.0841 z" /><text
           xml:space="preserve"
           transform="scale(0.26458333)"
           id="text288"
           style="fill:none;stroke-width:7.1811021;stroke:#161616;paint-order:stroke fill markers;stroke-linejoin:bevel;white-space:pre;shape-inside:url(#rect290)" /><text
           xml:space="preserve"
           style="font-size:30.059px;fill:#1c6628;fill-opacity:1;stroke:none;stroke-width:17.3515;stroke-linejoin:bevel;stroke-dasharray:none;stroke-opacity:1;paint-order:stroke fill markers"
           x="58.137787"
           y="171.44186"
           id="text406"><tspan
             sodipodi:role="line"
             id="tspan404"
             style="font-style:normal;font-variant:normal;font-weight:normal;font-stretch:normal;font-family:'Ubuntu Mono';-inkscape-font-specification:'Ubuntu Mono';fill:#1c6628;fill-opacity:1;stroke:none;stroke-width:17.3515;stroke-dasharray:none;stroke-opacity:1"
             x="58.137787"
             y="171.44186">devFriend</tspan></text></g></g></g></svg>
